<svg width="830" height="681" viewBox="0 0 830 681" fill="none" xmlns="http://www.w3.org/2000/svg">
<path opacity="0.2" d="M185.456 202.916C226.922 115.189 79.0961 31.0856 0 0H991V252.59C970.077 404.425 920.923 652.376 882.5 655C834.472 658.28 825.711 679.51 703.5 619.057C581.289 558.604 317.653 783.076 153.12 619.057C-11.4127 455.037 133.623 312.574 185.456 202.916Z" fill="url(#paint0_linear)"/>
<path d="M436.192 147.167C436.192 147.167 297.85 151.007 268.687 218.034C231.817 302.775 324.84 356.951 429.765 376.175C534.689 395.399 550.323 427.214 550.323 427.214" stroke="#F39200" stroke-width="1.29491" stroke-miterlimit="10" stroke-dasharray="2.59 2.59"/>
<path d="M197.738 454.155L186.046 444.42C188.307 479.6 207.879 475.673 207.879 475.673C215.07 439.606 237.24 404.66 244.038 393.956C250.836 383.253 269.889 362.085 284.26 348.243C298.631 334.4 304.788 321.998 304.788 321.998C296.088 330.855 273.962 335.886 273.962 335.886C273.962 339.858 269.99 354.207 269.99 354.207C269.99 348.715 266.94 338.328 266.94 338.328C261.29 339.093 254.917 342.874 254.917 342.874L259.194 367.014L247.883 346.643C235.064 351.167 214.954 362.231 215.956 371.538C216.923 380.541 230.878 397.231 231.745 398.266L205.14 376.568L199.108 411.006C202.124 419.3 219.48 427.212 219.48 427.212C210.679 428.585 192.582 414.02 192.582 414.02C192.582 414.02 186.044 432.623 186.044 437.397C186.046 442.03 197.052 453.446 197.738 454.155Z" fill="#ABD2F4"/>
<path d="M197.738 454.155L186.046 444.42C188.307 479.6 207.879 475.673 207.879 475.673C215.07 439.606 237.24 404.66 244.038 393.956C250.836 383.253 269.889 362.085 284.26 348.243C298.631 334.4 304.788 321.998 304.788 321.998C296.088 330.855 273.962 335.886 273.962 335.886C273.962 339.858 269.99 354.207 269.99 354.207C269.99 348.715 266.94 338.328 266.94 338.328C261.29 339.093 254.917 342.874 254.917 342.874L259.194 367.014L247.883 346.643C235.064 351.167 214.954 362.231 215.956 371.538C216.923 380.541 230.878 397.231 231.745 398.266L205.14 376.568L199.108 411.006C202.124 419.3 219.48 427.212 219.48 427.212C210.679 428.585 192.582 414.02 192.582 414.02C192.582 414.02 186.044 432.623 186.044 437.397C186.046 442.03 197.052 453.446 197.738 454.155Z" fill="#C2DCCC"/>
<path d="M207.879 475.676C219.582 476.464 226.497 454.788 228.327 448.375C230.157 441.962 234.888 434.182 244.657 425.946C254.425 417.71 262.356 403.967 262.356 403.967C253.961 409.762 242.673 407.478 242.673 407.478C263.887 397.101 265.563 385.499 265.563 385.499C278.686 378.33 293.339 345.355 293.339 345.355C300.519 337.275 304.785 322.003 304.785 322.003C304.785 322.003 298.617 334.404 284.256 348.248C269.895 362.091 250.821 383.248 244.035 393.961C237.249 404.675 215.066 439.603 207.879 475.676Z" fill="#ABD2F4"/>
<path d="M207.879 475.676C219.582 476.464 226.497 454.788 228.327 448.375C230.157 441.962 234.888 434.182 244.657 425.946C254.425 417.71 262.356 403.967 262.356 403.967C253.961 409.762 242.673 407.478 242.673 407.478C263.887 397.101 265.563 385.499 265.563 385.499C278.686 378.33 293.339 345.355 293.339 345.355C300.519 337.275 304.785 322.003 304.785 322.003C304.785 322.003 298.617 334.404 284.256 348.248C269.895 362.091 250.821 383.248 244.035 393.961C237.249 404.675 215.066 439.603 207.879 475.676Z" fill="#8EACA8"/>
<path d="M244.034 393.952L225.205 358.399" stroke="#8EACA8" stroke-width="0.562716" stroke-miterlimit="10"/>
<path d="M248.949 387.21L231.421 354.115" stroke="#8EACA8" stroke-width="0.562716" stroke-miterlimit="10"/>
<path d="M216.744 583.346C214.962 579.516 212.881 575.738 210.707 572.064C208.537 568.377 206.151 564.819 203.647 561.355L201.735 558.781C201.08 557.937 200.399 557.116 199.731 556.281C198.424 554.587 196.947 553.045 195.549 551.431C192.662 548.295 189.523 545.4 186.165 542.776L184.907 541.795L184.277 541.305L183.609 540.868L180.943 539.125C180.051 538.548 179.128 538.018 178.178 537.539C177.233 537.051 176.325 536.488 175.35 536.061C173.401 535.203 171.485 534.264 169.457 533.596C168.449 533.252 167.47 532.82 166.439 532.546L163.366 531.657C155.089 529.467 146.484 528.788 137.966 529.654C133.721 530.084 129.547 531.05 125.545 532.531L124.06 533.109L122.641 533.82C122.176 534.07 121.676 534.268 121.238 534.56L119.915 535.424C118.174 536.613 116.663 538.106 115.454 539.832C114.233 541.563 113.292 543.476 112.665 545.499C112.016 547.524 111.613 549.62 111.463 551.741C111.202 556.015 111.718 560.3 112.985 564.389C114.226 568.499 116.038 572.414 118.368 576.019C120.685 579.641 123.4 582.992 126.461 586.011C132.664 592.009 139.825 596.928 147.649 600.567C139.771 597.005 132.543 592.151 126.264 586.207C123.151 583.204 120.383 579.861 118.013 576.243C115.619 572.625 113.745 568.689 112.447 564.549C111.113 560.401 110.542 556.045 110.762 551.692C110.893 549.51 111.286 547.352 111.931 545.264C112.561 543.156 113.517 541.161 114.764 539.349C116.013 537.525 117.581 535.942 119.391 534.674L120.764 533.755C121.22 533.447 121.727 533.236 122.207 532.972L123.669 532.221L125.188 531.609C129.259 530.052 133.511 529.017 137.843 528.53C146.506 527.555 155.274 528.152 163.725 530.293L166.871 531.166C167.926 531.436 168.932 531.864 169.966 532.205C172.044 532.866 174.016 533.803 176.019 534.66C177.021 535.088 177.96 535.653 178.933 536.143C179.913 536.624 180.866 537.157 181.789 537.739L184.553 539.503L185.242 539.947L185.894 540.442L187.196 541.433C190.66 544.079 193.901 547.004 196.888 550.179C198.33 551.804 199.853 553.364 201.2 555.069C201.887 555.91 202.59 556.739 203.265 557.59L205.235 560.183C207.817 563.673 210.275 567.256 212.518 570.971C214.761 574.687 216.898 578.445 218.796 582.409L216.744 583.346Z" fill="#8EACA8"/>
<path d="M199.703 582.187C196.354 573.372 193.135 564.516 190.046 555.617C186.976 546.709 184.006 537.759 181.565 528.641C181.24 527.507 180.998 526.348 180.711 525.204C180.423 524.059 180.186 522.899 179.966 521.736C179.475 519.413 179.209 517.048 179.171 514.673C179.113 512.295 179.336 509.918 179.834 507.592C180.317 505.256 181.195 503.019 182.43 500.978C183.667 498.928 185.39 497.213 187.446 495.985C189.52 494.807 191.846 494.143 194.23 494.049C198.989 493.821 203.612 495.315 207.875 497.245C203.585 495.378 198.942 493.961 194.242 494.259C191.903 494.386 189.627 495.071 187.607 496.257C185.621 497.485 183.967 499.181 182.79 501.198C180.401 505.219 179.663 510.024 179.804 514.658C179.875 516.993 180.172 519.316 180.69 521.594C180.926 522.741 181.168 523.885 181.479 525.017C181.791 526.15 182.039 527.295 182.379 528.42C184.944 537.458 188.043 546.349 191.24 555.195C194.438 564.04 197.804 572.833 201.275 581.57L199.703 582.187Z" fill="#8EACA8"/>
<path d="M207.879 475.676C207.879 475.676 192.183 549.546 200.492 581.882" stroke="#8EACA8" stroke-width="0.83489" stroke-miterlimit="10"/>
<path d="M220.141 582.876V543.183" stroke="#8EACA8" stroke-width="0.83489" stroke-miterlimit="10"/>
<path d="M304.787 441.236C304.787 441.236 274.23 449.744 260.183 447.556C246.136 445.369 249.563 461.224 249.563 461.224C249.563 461.224 225.386 471.097 225.386 480.76C225.386 490.423 232.625 499.44 232.625 499.44C232.625 499.44 226.91 498.297 220.687 488.009C220.687 488.009 210.699 505.201 211.888 512.339C212.663 516.736 214.418 520.903 217.025 524.528C217.025 524.528 213.724 523.471 212.387 520.618C212.387 520.618 216.656 538.902 220.14 543.183C220.14 543.183 232.276 535.724 236.825 527.769C241.373 519.814 260.942 501.196 269.042 486.345C277.143 471.495 296.88 445.63 304.787 441.236Z" fill="#ABD2F4"/>
<path d="M304.787 441.236C304.787 441.236 274.23 449.744 260.183 447.556C246.136 445.369 249.563 461.224 249.563 461.224C249.563 461.224 225.386 471.097 225.386 480.76C225.386 490.423 232.625 499.44 232.625 499.44C232.625 499.44 226.91 498.297 220.687 488.009C220.687 488.009 210.699 505.201 211.888 512.339C212.663 516.736 214.418 520.903 217.025 524.528C217.025 524.528 213.724 523.471 212.387 520.618C212.387 520.618 216.656 538.902 220.14 543.183C220.14 543.183 232.276 535.724 236.825 527.769C241.373 519.814 260.942 501.196 269.042 486.345C277.143 471.495 296.88 445.63 304.787 441.236Z" fill="#8EACA8"/>
<path d="M137.194 465.698C137.194 465.698 130.58 457.225 129.407 447.608C129.407 447.608 109.939 446.201 103.84 442.682C103.84 442.682 120.585 459.159 137.194 465.698Z" fill="#ABD2F4"/>
<path d="M137.194 465.698C137.194 465.698 130.58 457.225 129.407 447.608C129.407 447.608 109.939 446.201 103.84 442.682C103.84 442.682 120.585 459.159 137.194 465.698Z" fill="#8EACA8"/>
<path d="M107.098 439.806C99.3775 431.951 96.755 419.11 96.755 419.11C93.1876 415.396 87.4252 403.276 87.4252 403.276C82.4017 422.655 105.77 438.906 107.098 439.806Z" fill="#ABD2F4"/>
<path d="M107.098 439.806C107.114 439.824 107.133 439.839 107.154 439.851" stroke="#7F51A8" stroke-width="0.22542" stroke-miterlimit="10"/>
<path d="M177.469 526.385C177.469 526.385 185.734 552.568 186.045 581.879" stroke="#8EACA8" stroke-width="0.562716" stroke-miterlimit="10"/>
<path d="M96.7549 419.11C96.7549 419.11 99.3773 431.951 107.098 439.806C110.309 443.293 114.736 445.415 119.466 445.734C119.466 445.734 132.284 468.558 154.387 474.376C154.387 474.376 141.029 480.205 129.381 475.107C129.381 475.107 143.459 499.878 153.175 512.021C157.283 517.152 160.299 520.777 163.248 523.14C167.276 526.37 171.17 527.248 177.473 526.381C177.473 526.381 214.274 501.802 188.772 456.943L171.531 481.308L184.102 448.21C184.102 448.21 166.987 415.618 137.285 400.245L127.152 414.574L133.791 385.922C133.791 385.922 102.685 369.851 83.8232 364.257L103.034 390.165C103.034 390.165 122.159 425.024 124.95 432.361C124.951 432.361 105.14 429.948 96.7549 419.11Z" fill="#D9E7DE"/>
<path d="M163.244 523.143C160.295 520.78 157.279 517.155 153.171 512.024C143.459 499.881 129.377 475.11 129.377 475.11C129.377 475.11 121.859 464.34 119.012 463.71C116.165 463.08 102.562 500.398 163.244 523.143Z" fill="#ABD2F4"/>
<path d="M177.469 526.384C177.469 526.384 157.751 464.416 124.95 432.361" stroke="#8EACA8" stroke-width="0.562716" stroke-miterlimit="10"/>
<path d="M147.65 461.632L169.561 427.214" stroke="#8EACA8" stroke-width="0.562716" stroke-miterlimit="10"/>
<path d="M140.796 451.253L161.032 418.707" stroke="#8EACA8" stroke-width="0.562716" stroke-miterlimit="10"/>
<path d="M124.951 432.361C124.951 432.361 120.07 403.275 120.517 399.049C120.517 399.049 83.4323 383.173 71 364.253C71 364.257 91.8764 402.102 124.951 432.361Z" fill="#ABD2F4"/>
<path d="M107.098 439.806C99.3775 431.951 96.755 419.11 96.755 419.11C93.1876 415.396 87.4252 403.276 87.4252 403.276C82.4017 422.655 105.77 438.906 107.098 439.806Z" fill="#8EACA8"/>
<path d="M163.244 523.143C160.295 520.78 157.279 517.155 153.171 512.024C143.459 499.881 129.377 475.11 129.377 475.11C129.377 475.11 121.859 464.34 119.012 463.71C116.165 463.08 102.562 500.398 163.244 523.143Z" fill="#8EACA8"/>
<path d="M124.951 432.361C124.951 432.361 120.07 403.275 120.517 399.049C120.517 399.049 83.4323 383.173 71 364.253C71 364.257 91.8764 402.102 124.951 432.361Z" fill="#8EACA8"/>
<path d="M247.343 370.717C248.893 370.717 250.15 369.461 250.15 367.91C250.15 366.36 248.893 365.104 247.343 365.104C245.793 365.104 244.536 366.36 244.536 367.91C244.536 369.461 245.793 370.717 247.343 370.717Z" fill="white"/>
<path d="M220.141 405.521C221.382 405.521 222.387 404.516 222.387 403.276C222.387 402.035 221.382 401.03 220.141 401.03C218.901 401.03 217.896 402.035 217.896 403.276C217.896 404.516 218.901 405.521 220.141 405.521Z" fill="white"/>
<path d="M140.797 418.707C141.789 418.707 142.593 417.902 142.593 416.91C142.593 415.918 141.789 415.113 140.797 415.113C139.804 415.113 139 415.918 139 416.91C139 417.902 139.804 418.707 140.797 418.707Z" fill="white"/>
<path d="M236.417 487.293C237.409 487.293 238.213 486.489 238.213 485.496C238.213 484.504 237.409 483.7 236.417 483.7C235.425 483.7 234.62 484.504 234.62 485.496C234.62 486.489 235.425 487.293 236.417 487.293Z" fill="white"/>
<path d="M230.993 518.18C231.787 518.18 232.43 517.537 232.43 516.743C232.43 515.949 231.787 515.306 230.993 515.306C230.2 515.306 229.557 515.949 229.557 516.743C229.557 517.537 230.2 518.18 230.993 518.18Z" fill="white"/>
<path d="M164.402 455.627C165.195 455.627 165.839 454.983 165.839 454.19C165.839 453.396 165.195 452.753 164.402 452.753C163.608 452.753 162.965 453.396 162.965 454.19C162.965 454.983 163.608 455.627 164.402 455.627Z" fill="white"/>
<path d="M130.143 494.754C130.5 494.754 130.79 494.464 130.79 494.107C130.79 493.749 130.5 493.459 130.143 493.459C129.786 493.459 129.496 493.749 129.496 494.107C129.496 494.464 129.786 494.754 130.143 494.754Z" fill="white"/>
<path d="M322.647 136.616H405.19C411.917 136.616 418.369 139.288 423.126 144.045C427.882 148.802 430.555 155.253 430.555 161.98C430.555 168.707 427.883 175.159 423.126 179.916C418.369 184.673 411.917 187.345 405.19 187.345H340.389L323.035 203.139V187.345H322.647C319.316 187.345 316.018 186.689 312.941 185.414C309.863 184.139 307.067 182.271 304.712 179.916C302.357 177.56 300.488 174.764 299.214 171.687C297.939 168.609 297.283 165.311 297.283 161.98C297.283 158.649 297.939 155.351 299.214 152.274C300.489 149.196 302.357 146.4 304.712 144.045C307.067 141.69 309.863 139.822 312.941 138.547C316.018 137.272 319.316 136.616 322.647 136.616Z" fill="#816DBC"/>
<path d="M390.524 166.8C392.983 166.8 394.977 164.806 394.977 162.347C394.977 159.887 392.983 157.894 390.524 157.894C388.064 157.894 386.07 159.887 386.07 162.347C386.07 164.806 388.064 166.8 390.524 166.8Z" fill="white"/>
<path d="M363.918 166.8C366.378 166.8 368.371 164.806 368.371 162.347C368.371 159.887 366.378 157.894 363.918 157.894C361.459 157.894 359.465 159.887 359.465 162.347C359.465 164.806 361.459 166.8 363.918 166.8Z" fill="white"/>
<path d="M337.313 166.8C339.772 166.8 341.766 164.806 341.766 162.347C341.766 159.887 339.772 157.894 337.313 157.894C334.853 157.894 332.859 159.887 332.859 162.347C332.859 164.806 334.853 166.8 337.313 166.8Z" fill="white"/>
<path d="M248.304 334.522C264.65 317.657 269.26 306.871 272.119 295.893C279.026 269.402 285.714 258.507 294.827 249.294C301.955 242.089 310.506 239.648 317.459 237.671C328.35 234.573 345.352 227.653 361.948 235.695C388.046 248.341 368.871 308.362 368.871 308.362C368.871 308.362 375.787 316.962 371.951 334.206C368.116 351.451 385.15 357.225 385.15 357.225C423.771 381.043 376.681 417.137 376.681 417.137C294.361 459.368 247.833 410.988 247.833 410.988C210.056 379.414 234.999 348.249 248.304 334.522Z" fill="#081D39"/>
<path d="M461.4 464.65L455.263 450.279L407.291 459.906C409.391 468.246 412.15 476.407 415.542 484.31C420.5 495.781 427.725 508.26 437.325 514.381L461.4 464.65Z" fill="#F09473"/>
<path d="M382.197 346.408L341.172 399.819L405.276 469.372L414.931 484.835L455.819 449.797C456.827 448.934 457.55 447.786 457.893 446.505C458.237 445.223 458.184 443.868 457.743 442.617C452.308 427.25 431.974 376.517 423.666 366.976C415.586 357.692 399.332 351.711 390.748 349.159L382.197 346.408Z" fill="url(#paint1_linear)"/>
<path d="M267.11 572.096L289.657 576.311L356.731 588.834C368.841 591.097 381.298 590.716 393.247 587.717C405.196 584.719 416.356 579.173 425.962 571.459C426.465 571.062 426.872 570.555 427.152 569.978C427.433 569.401 427.579 568.768 427.58 568.126C427.583 567.308 427.344 566.506 426.894 565.823C424.099 561.51 418.757 551.315 410.768 528.009C401.824 501.983 407.313 480.663 414.346 460.665C416.183 455.47 418.12 450.348 419.933 445.275C420.914 442.531 421.869 439.81 422.727 437.065C431.451 409.79 424.908 389.253 399.324 374.304C373.763 359.355 382.194 346.419 382.194 346.419C382.194 346.419 381.091 346.001 379.008 345.417C376.072 344.602 373.094 343.948 370.087 343.457L352.663 341.056L313.256 337.501C297.369 339.529 283.107 340.708 272.086 344.264C272.086 344.264 266.008 376.76 272.551 392.542C272.894 393.351 273.237 394.282 273.605 395.336C273.605 395.339 273.605 395.342 273.607 395.345C273.608 395.348 273.61 395.351 273.612 395.353C273.614 395.356 273.617 395.357 273.62 395.359C273.623 395.36 273.626 395.36 273.63 395.36C274.242 397.124 274.882 399.207 275.566 401.56C277.944 410.153 279.785 418.886 281.076 427.709C284.728 451.749 285.487 481.501 275.268 500.272C273.592 503.358 272.141 506.561 270.926 509.855C260.053 539.061 267.11 572.096 267.11 572.096Z" fill="url(#paint2_linear)"/>
<g style="mix-blend-mode:overlay" opacity="0.3">
<path d="M399.332 374.313C424.906 389.263 431.452 409.78 422.739 437.058C421.862 439.798 420.921 442.533 419.94 445.277C418.126 450.359 416.188 455.463 414.356 460.664L409.514 476.162" stroke="#050F1B" stroke-width="1.33582" stroke-miterlimit="10"/>
</g>
<path d="M272.089 344.265C272.089 344.265 255.969 349.718 247.533 357.462C238.683 365.589 228.406 382.753 225.791 399.228C223.713 412.321 224.381 447.341 226.125 463.278C226.228 464.211 226.529 465.112 227.009 465.919C227.489 466.726 228.136 467.421 228.907 467.957C229.678 468.493 230.555 468.857 231.479 469.026C232.402 469.194 233.352 469.163 234.262 468.933L278.636 458.461L279.288 407.017L272.089 344.265Z" fill="url(#paint3_linear)"/>
<path d="M359.603 263.563C373.044 296.764 370.412 313.483 365.538 321.755C364.078 324.359 362.042 326.594 359.585 328.288C357.128 329.983 354.315 331.092 351.363 331.531L349.921 331.655L350.046 333.096L352.19 345.369C352.64 347.952 352.485 350.603 351.735 353.115C350.985 355.627 349.662 357.93 347.869 359.843C346.076 361.755 343.864 363.225 341.406 364.136C338.948 365.047 336.312 365.374 333.706 365.091L328.662 364.544C323.894 364.027 319.525 361.647 316.506 357.922C313.486 354.196 312.062 349.429 312.542 344.658L315.84 311.946L315.035 311.485C309.965 308.579 306.914 301.093 307.247 295.923C307.356 294.231 307.687 289.084 310.547 287.658C312.738 286.567 316.374 287.626 321.067 290.717L321.578 291.051L322.174 290.917C322.975 290.737 338.386 287.16 347.237 276.241C344.327 284.136 338.525 291.141 329.898 297.151L320.965 303.378L331.213 299.69C331.514 299.586 358.624 289.504 359.603 263.563Z" fill="#F7CDBE"/>
<g style="mix-blend-mode:overlay">
<path d="M349.921 331.653C349.921 331.653 338.734 330.454 331.094 323.767C331.094 323.767 335.489 333.86 351.251 339.99L349.921 331.653Z" fill="#1E1E1E"/>
</g>
<g style="mix-blend-mode:overlay" opacity="0.3">
<path d="M267.11 572.096L289.657 576.311C285.599 563.892 284.172 550.764 285.467 537.762C289.461 500.758 296.32 485.759 296.2 452.92C296.077 420.817 274.61 396.457 273.63 395.354C274.242 397.119 274.882 399.202 275.566 401.554C277.944 410.148 279.785 418.881 281.076 427.703C284.728 451.744 285.487 481.495 275.268 500.267C273.592 503.352 272.141 506.555 270.926 509.85C260.053 539.061 267.11 572.096 267.11 572.096Z" fill="#050F1B"/>
</g>
<path d="M231.017 468.929L278.027 458.604L277.186 485.116L341.389 539.855L329.779 556.927L236.396 506.675C235.166 506.014 234.129 505.042 233.391 503.856C232.652 502.671 232.235 501.313 232.183 499.917L231.017 468.929Z" fill="#F7CDBE"/>
<path d="M306.042 577.772C306.042 579.681 305.718 581.577 305.084 583.377H263.656C263.022 581.577 262.698 579.681 262.698 577.772C262.698 567.273 272.394 558.755 284.369 558.755C296.344 558.755 306.042 567.273 306.042 577.772Z" fill="#8DC1FF"/>
<g style="mix-blend-mode:overlay" opacity="0.5">
<path d="M306.042 577.772C306.042 579.681 305.718 581.577 305.084 583.377H263.656C263.022 581.577 262.698 579.681 262.698 577.772C262.698 567.273 272.394 558.755 284.369 558.755C296.344 558.755 306.042 567.273 306.042 577.772Z" fill="black"/>
</g>
<path d="M305.227 581.254C305.23 581.967 305.16 582.679 305.02 583.377H263.723C263.582 582.679 263.513 581.967 263.516 581.254C263.516 572.672 272.849 565.719 284.37 565.719C295.892 565.719 305.227 572.672 305.227 581.254Z" fill="#8DC1FF"/>
<g style="mix-blend-mode:overlay" opacity="0.5">
<path d="M285.929 564.205C285.929 563.344 285.231 562.646 284.37 562.646C283.509 562.646 282.812 563.344 282.812 564.205V570.903C282.812 571.764 283.509 572.462 284.37 572.462C285.231 572.462 285.929 571.764 285.929 570.903V564.205Z" fill="#141414"/>
</g>
<path d="M394.978 218.034C398.237 218.034 400.878 215.392 400.878 212.134C400.878 208.875 398.237 206.233 394.978 206.233C391.72 206.233 389.078 208.875 389.078 212.134C389.078 215.392 391.72 218.034 394.978 218.034Z" fill="white"/>
<path d="M592.772 106.566C597.347 106.566 601.055 102.857 601.055 98.2829C601.055 93.7084 597.347 90 592.772 90C588.198 90 584.489 93.7084 584.489 98.2829C584.489 102.857 588.198 106.566 592.772 106.566Z" fill="#DEEDFF"/>
<path d="M186.096 345.594C189.023 345.594 191.396 343.221 191.396 340.293C191.396 337.366 189.023 334.993 186.096 334.993C183.168 334.993 180.795 337.366 180.795 340.293C180.795 343.221 183.168 345.594 186.096 345.594Z" fill="#DEEDFF"/>
<path d="M711.116 582.185H121.782C119.063 582.185 116.859 583.976 116.859 586.185C116.859 588.394 119.063 590.185 121.782 590.185H711.116C713.834 590.185 716.038 588.394 716.038 586.185C716.038 583.976 713.834 582.185 711.116 582.185Z" fill="#9F5F80"/>
<path fill-rule="evenodd" clip-rule="evenodd" d="M341.393 551.543C341.393 551.543 360.075 550.413 360.587 554.57C360.886 556.991 358.448 557.028 353.233 558.886C350.318 559.924 368.144 571.409 365.454 573.176C362.859 574.88 355.631 568.424 355.631 568.424C355.631 568.424 365.918 577.501 363.278 579.683C361.268 581.344 351.575 571.061 351.575 571.061C351.575 571.061 359.852 580.466 358.607 581.68C356.06 584.163 346.345 574.27 346.345 574.27C346.345 574.27 345.6 573.57 349.112 578.674C352.77 583.993 347.516 582.823 340.8 577.558C334.096 572.302 329.779 568.616 329.779 568.616L341.393 551.543Z" fill="#F7CDBE"/>
<g style="mix-blend-mode:overlay" opacity="0.15">
<path d="M404.634 460.331C404.634 460.331 393.466 487.548 362.226 467.762C362.226 467.762 334.335 488.081 317.309 464.122" stroke="#050F1B" stroke-width="2.50467" stroke-miterlimit="10"/>
</g>
<path d="M316.713 582.189H381.51V574.548H325.756C324.593 574.548 323.447 574.83 322.417 575.371C321.387 575.912 320.504 576.695 319.844 577.652L316.713 582.189Z" fill="#9981EF"/>
<path d="M316.713 582.189H381.51V574.548H325.756C324.593 574.548 323.447 574.83 322.417 575.371C321.387 575.912 320.504 576.695 319.844 577.652L316.713 582.189Z" fill="#8DC1FF"/>
<path d="M602.032 441.649V566.966C602.032 571.268 600.323 575.394 597.281 578.436C594.239 581.478 590.113 583.187 585.811 583.187H372.944C368.642 583.187 364.516 581.478 361.474 578.436C358.432 575.394 356.723 571.268 356.723 566.966V435.928C356.722 433.145 357.826 430.476 359.792 428.507C361.758 426.538 364.426 425.431 367.209 425.428H585.811C590.113 425.428 594.239 427.138 597.281 430.18C600.323 433.222 602.032 437.347 602.032 441.649Z" fill="#F7CDBE"/>
<g style="mix-blend-mode:overlay" opacity="0.5">
<path d="M602.032 441.649V566.966C602.032 571.268 600.323 575.394 597.281 578.436C594.239 581.478 590.113 583.187 585.811 583.187H372.944C368.642 583.187 364.516 581.478 361.474 578.436C358.432 575.394 356.723 571.268 356.723 566.966V435.928C356.722 433.145 357.826 430.476 359.792 428.507C361.758 426.538 364.426 425.431 367.209 425.428H585.811C590.113 425.428 594.239 427.138 597.281 430.18C600.323 433.222 602.032 437.347 602.032 441.649Z" fill="black"/>
</g>
<path d="M602.03 441.647V566.964C602.03 571.267 600.32 575.393 597.278 578.435C594.236 581.477 590.11 583.187 585.808 583.188H377.185C372.884 583.186 368.76 581.476 365.719 578.434C362.679 575.391 360.971 571.266 360.973 566.964V435.923C360.973 434.544 361.244 433.179 361.772 431.905C362.299 430.631 363.073 429.474 364.047 428.499C365.022 427.524 366.18 426.75 367.454 426.223C368.727 425.695 370.093 425.424 371.471 425.424H585.808C590.11 425.425 594.236 427.135 597.278 430.177C600.32 433.219 602.03 437.345 602.03 441.647Z" fill="#F7CDBE"/>
<path d="M481.5 515.948C489.137 515.948 495.328 509.758 495.328 502.121C495.328 494.484 489.137 488.293 481.5 488.293C473.864 488.293 467.673 494.484 467.673 502.121C467.673 509.758 473.864 515.948 481.5 515.948Z" fill="white"/>
<g style="mix-blend-mode:overlay" opacity="0.1">
<path d="M602.03 441.647V566.964C602.029 571.266 600.32 575.392 597.278 578.435C594.235 581.477 590.11 583.187 585.807 583.188H483.545L481.496 425.422H585.807C590.11 425.423 594.236 427.133 597.278 430.176C600.32 433.218 602.03 437.345 602.03 441.647Z" fill="black"/>
</g>
<g style="mix-blend-mode:overlay" opacity="0.1">
<path d="M602.037 440.644V476.745H575.863C574.934 476.745 574.019 476.523 573.194 476.098C572.369 475.672 571.658 475.055 571.12 474.298C570.582 473.541 570.233 472.667 570.103 471.747C569.972 470.828 570.064 469.891 570.369 469.014L582.25 434.9C582.647 433.76 583.389 432.771 584.373 432.07C585.358 431.37 586.535 430.994 587.743 430.993H598.839C600.921 433.78 602.043 437.166 602.037 440.644Z" fill="#161616"/>
</g>
<path d="M772.565 346.176H472.421C470.983 346.176 469.604 345.605 468.588 344.588C467.571 343.572 467 342.193 467 340.755V129.06C469.559 129.006 472.124 128.977 474.697 128.973C540.952 128.964 605.498 149.994 659.032 189.029C712.565 228.065 752.321 283.091 772.569 346.176H772.565Z" fill="#EDC6A2"/>
<g style="mix-blend-mode:overlay" opacity="0.3">
<path d="M772.565 346.176H472.421C470.983 346.176 469.604 345.605 468.588 344.588C467.571 343.572 467 342.193 467 340.755V129.06C469.559 129.006 472.124 128.977 474.697 128.973C540.952 128.964 605.498 149.994 659.032 189.029C712.565 228.065 752.321 283.091 772.569 346.176H772.565Z" fill="black"/>
</g>
<path d="M795.733 132.45V332.66C795.733 333.644 795.342 334.587 794.647 335.282C793.951 335.977 793.008 336.368 792.025 336.368H480.588C479.15 336.368 477.771 335.797 476.755 334.78C475.738 333.764 475.167 332.385 475.167 330.947V132.446C475.167 130.811 475.489 129.193 476.114 127.683C476.739 126.173 477.656 124.801 478.812 123.645C479.968 122.489 481.34 121.572 482.85 120.947C484.36 120.322 485.978 120 487.613 120H783.288C784.923 120 786.542 120.322 788.052 120.948C789.562 121.574 790.934 122.491 792.09 123.647C793.245 124.803 794.162 126.176 794.787 127.686C795.412 129.196 795.733 130.815 795.733 132.45Z" fill="white"/>
<path d="M475.167 155.749H795.733V330.13C795.733 331.785 795.075 333.372 793.905 334.542C792.735 335.712 791.148 336.369 789.494 336.369H480.588C479.15 336.369 477.771 335.798 476.755 334.782C475.738 333.765 475.167 332.386 475.167 330.949V155.749Z" fill="#F2DDBE"/>
<path d="M795.733 132.451V142.099H475.167V132.451C475.167 130.816 475.489 129.198 476.114 127.688C476.739 126.178 477.656 124.806 478.812 123.65C479.968 122.494 481.34 121.577 482.85 120.952C484.36 120.327 485.978 120.005 487.613 120.005H783.287C786.587 120.007 789.752 121.318 792.085 123.652C794.419 125.986 795.731 129.15 795.733 132.451Z" fill="#F2DDBE"/>
<path d="M494.938 137.16C498.311 137.16 501.046 134.426 501.046 131.052C501.046 127.679 498.311 124.944 494.938 124.944C491.565 124.944 488.83 127.679 488.83 131.052C488.83 134.426 491.565 137.16 494.938 137.16Z" fill="white"/>
<path d="M520.231 131.059C520.231 132.49 519.725 133.875 518.802 134.969C518.58 135.255 518.322 135.511 518.037 135.734C516.94 136.656 515.553 137.162 514.12 137.162C512.687 137.162 511.3 136.656 510.204 135.734C509.926 135.507 509.674 135.251 509.452 134.969C508.522 133.876 508.011 132.488 508.011 131.052C508.011 129.617 508.522 128.229 509.452 127.135C509.674 126.854 509.926 126.597 510.204 126.371C511.3 125.448 512.687 124.942 514.12 124.942C515.553 124.942 516.94 125.448 518.037 126.371C518.319 126.597 518.576 126.853 518.802 127.135C519.725 128.234 520.231 129.624 520.231 131.059Z" fill="white"/>
<path d="M517.009 133.472C516.872 133.648 516.714 133.807 516.538 133.944L514.123 131.521L513.65 131.057L511.234 128.633C511.371 128.459 511.526 128.3 511.698 128.161L514.123 130.584L514.594 131.057L517.009 133.472Z" fill="#F57301"/>
<path d="M517.009 128.633L514.594 131.057L514.123 131.521L511.698 133.944C511.526 133.805 511.371 133.646 511.234 133.472L514.123 130.584L516.538 128.161C516.712 128.3 516.87 128.458 517.009 128.633Z" fill="#F57301"/>
<path d="M498.693 131.384H495.27H494.608H491.177C491.154 131.164 491.156 130.942 491.182 130.722H495.266L498.688 130.715C498.714 130.937 498.716 131.162 498.693 131.384Z" fill="#F57301"/>
<path d="M795.733 132.451V330.952C795.733 332.39 795.161 333.769 794.145 334.785C793.128 335.802 791.75 336.373 790.312 336.373H480.588C479.15 336.373 477.771 335.802 476.755 334.785C475.738 333.769 475.167 332.39 475.167 330.952V132.451C475.167 130.816 475.489 129.198 476.114 127.688C476.739 126.178 477.656 124.806 478.812 123.65C479.968 122.494 481.34 121.577 482.85 120.952C484.36 120.327 485.978 120.005 487.613 120.005H783.288C784.922 120.005 786.541 120.327 788.051 120.952C789.561 121.578 790.933 122.495 792.088 123.65C793.244 124.806 794.16 126.178 794.786 127.688C795.411 129.198 795.733 130.816 795.733 132.451V132.451Z" stroke="white" stroke-width="1.02232" stroke-miterlimit="10"/>
<path d="M632.281 171.774H509.077C503.896 171.774 499.695 175.974 499.695 181.156V247.639C499.695 252.821 503.896 257.021 509.077 257.021H632.281C637.462 257.021 641.663 252.821 641.663 247.639V181.156C641.663 175.974 637.462 171.774 632.281 171.774Z" fill="white"/>
<path d="M589.848 215.462C590.034 215.354 590.189 215.199 590.297 215.012C590.405 214.825 590.461 214.614 590.461 214.398C590.461 214.182 590.405 213.971 590.297 213.784C590.189 213.597 590.034 213.442 589.848 213.334L574.502 204.474L559.157 195.615C558.971 195.507 558.759 195.45 558.543 195.45C558.327 195.45 558.116 195.507 557.929 195.615C557.742 195.722 557.587 195.878 557.479 196.064C557.371 196.251 557.314 196.463 557.314 196.679V232.116C557.314 232.332 557.371 232.544 557.479 232.731C557.586 232.918 557.741 233.073 557.928 233.181C558.115 233.289 558.327 233.346 558.543 233.346C558.759 233.346 558.971 233.289 559.157 233.181L574.502 224.321L589.848 215.462Z" fill="#F2DDBE"/>
<path d="M514.885 314.993C523.274 314.993 530.074 308.193 530.074 299.804C530.074 291.415 523.274 284.614 514.885 284.614C506.496 284.614 499.695 291.415 499.695 299.804C499.695 308.193 506.496 314.993 514.885 314.993Z" fill="url(#paint4_linear)"/>
<path d="M514.886 299.818C517.252 299.818 519.17 297.9 519.17 295.533C519.17 293.167 517.252 291.249 514.886 291.249C512.52 291.249 510.602 293.167 510.602 295.533C510.602 297.9 512.52 299.818 514.886 299.818Z" fill="#F2DDBE"/>
<path d="M506.344 308.36C506.344 306.094 507.244 303.922 508.846 302.32C510.447 300.718 512.62 299.818 514.886 299.818C517.151 299.818 519.324 300.718 520.925 302.32C522.527 303.922 523.427 306.094 523.427 308.36H506.344Z" fill="#F2DDBE"/>
<path d="M535.602 291.249H641.663" stroke="white" stroke-width="1.08412" stroke-miterlimit="10"/>
<path d="M535.602 308.36H599.867" stroke="white" stroke-width="1.08412" stroke-miterlimit="10"/>
<path d="M696.53 171.774H665.369C664.059 171.774 662.996 172.836 662.996 174.147V190.962C662.996 192.272 664.059 193.335 665.369 193.335H696.53C697.841 193.335 698.903 192.272 698.903 190.962V174.147C698.903 172.836 697.841 171.774 696.53 171.774Z" fill="white"/>
<path d="M685.797 182.823C685.845 182.796 685.885 182.757 685.913 182.709C685.941 182.661 685.955 182.607 685.955 182.552C685.955 182.497 685.941 182.443 685.913 182.395C685.885 182.348 685.845 182.308 685.797 182.281L681.916 180.04L678.036 177.8C677.989 177.773 677.935 177.758 677.88 177.758C677.826 177.758 677.772 177.772 677.725 177.8C677.677 177.827 677.638 177.866 677.611 177.914C677.584 177.961 677.569 178.015 677.569 178.069V187.032C677.569 187.086 677.584 187.14 677.611 187.187C677.638 187.235 677.677 187.274 677.725 187.301C677.772 187.329 677.825 187.343 677.88 187.343C677.935 187.343 677.988 187.329 678.036 187.302L681.916 185.061L685.797 182.823Z" fill="#F2DDBE"/>
<path d="M712.511 177.762H776.012" stroke="white" stroke-width="1.08412" stroke-miterlimit="10"/>
<path d="M712.511 187.346H743.142" stroke="white" stroke-width="1.08412" stroke-miterlimit="10"/>
<path d="M696.53 201.086H665.369C664.059 201.086 662.996 202.149 662.996 203.46V220.274C662.996 221.585 664.059 222.647 665.369 222.647H696.53C697.841 222.647 698.903 221.585 698.903 220.274V203.46C698.903 202.149 697.841 201.086 696.53 201.086Z" fill="white"/>
<path d="M685.797 212.136C685.845 212.109 685.886 212.07 685.914 212.022C685.942 211.974 685.956 211.92 685.956 211.865C685.956 211.809 685.942 211.755 685.914 211.708C685.886 211.66 685.845 211.621 685.797 211.594L681.916 209.353L678.036 207.112C677.989 207.085 677.935 207.07 677.88 207.07C677.826 207.07 677.772 207.084 677.725 207.111C677.677 207.139 677.638 207.178 677.611 207.225C677.584 207.273 677.569 207.326 677.569 207.381V216.344C677.569 216.399 677.584 216.452 677.611 216.499C677.639 216.547 677.678 216.586 677.725 216.613C677.772 216.64 677.826 216.655 677.88 216.655C677.935 216.655 677.988 216.64 678.036 216.613L681.916 214.372L685.797 212.136Z" fill="#F2DDBE"/>
<path d="M712.511 207.074H776.012" stroke="white" stroke-width="1.08412" stroke-miterlimit="10"/>
<path d="M712.511 216.66H743.142" stroke="white" stroke-width="1.08412" stroke-miterlimit="10"/>
<path d="M696.53 230.399H665.369C664.059 230.399 662.996 231.461 662.996 232.772V249.587C662.996 250.897 664.059 251.96 665.369 251.96H696.53C697.841 251.96 698.903 250.897 698.903 249.587V232.772C698.903 231.461 697.841 230.399 696.53 230.399Z" fill="white"/>
<path d="M685.797 241.45C685.845 241.424 685.886 241.384 685.914 241.337C685.942 241.289 685.956 241.235 685.956 241.179C685.956 241.124 685.942 241.07 685.914 241.022C685.886 240.975 685.845 240.935 685.797 240.908L681.916 238.667L678.036 236.427C677.988 236.399 677.935 236.385 677.88 236.385C677.826 236.385 677.772 236.4 677.725 236.427C677.678 236.454 677.639 236.493 677.611 236.54C677.584 236.588 677.569 236.641 677.569 236.695V245.659C677.569 245.713 677.584 245.767 677.611 245.814C677.639 245.861 677.678 245.9 677.725 245.928C677.772 245.955 677.826 245.969 677.88 245.969C677.935 245.969 677.988 245.955 678.036 245.928L681.916 243.687L685.797 241.45Z" fill="#F2DDBE"/>
<path d="M712.511 236.387H776.012" stroke="white" stroke-width="1.08412" stroke-miterlimit="10"/>
<path d="M712.511 245.973H743.142" stroke="white" stroke-width="1.08412" stroke-miterlimit="10"/>
<path d="M696.53 259.711H665.369C664.059 259.711 662.996 260.774 662.996 262.085V278.899C662.996 280.21 664.059 281.272 665.369 281.272H696.53C697.841 281.272 698.903 280.21 698.903 278.899V262.085C698.903 260.774 697.841 259.711 696.53 259.711Z" fill="white"/>
<path d="M685.797 270.76C685.845 270.734 685.886 270.694 685.914 270.647C685.942 270.599 685.956 270.545 685.956 270.489C685.956 270.434 685.942 270.38 685.914 270.332C685.886 270.285 685.845 270.245 685.797 270.218L681.916 267.978L678.036 265.737C677.988 265.71 677.935 265.695 677.88 265.695C677.826 265.695 677.772 265.71 677.725 265.737C677.678 265.764 677.639 265.803 677.611 265.85C677.584 265.898 677.569 265.951 677.569 266.006V274.969C677.569 275.024 677.584 275.077 677.611 275.125C677.638 275.172 677.677 275.211 677.725 275.239C677.772 275.266 677.826 275.28 677.88 275.28C677.935 275.28 677.989 275.265 678.036 275.238L681.916 272.997L685.797 270.76Z" fill="#F2DDBE"/>
<path d="M712.511 265.699H776.012" stroke="white" stroke-width="1.08412" stroke-miterlimit="10"/>
<path d="M712.511 275.285H743.142" stroke="white" stroke-width="1.08412" stroke-miterlimit="10"/>
<path d="M696.53 289.023H665.369C664.059 289.023 662.996 290.086 662.996 291.397V308.211C662.996 309.522 664.059 310.584 665.369 310.584H696.53C697.841 310.584 698.903 309.522 698.903 308.211V291.397C698.903 290.086 697.841 289.023 696.53 289.023Z" fill="white"/>
<path d="M685.797 300.074C685.845 300.047 685.886 300.008 685.914 299.96C685.942 299.913 685.956 299.858 685.956 299.803C685.956 299.748 685.942 299.693 685.914 299.646C685.886 299.598 685.845 299.559 685.797 299.532L681.916 297.291L678.036 295.05C677.988 295.023 677.935 295.009 677.88 295.009C677.825 295.009 677.772 295.023 677.725 295.051C677.677 295.078 677.638 295.117 677.611 295.165C677.584 295.212 677.569 295.266 677.569 295.32V304.283C677.569 304.337 677.584 304.391 677.611 304.438C677.638 304.485 677.677 304.525 677.725 304.552C677.772 304.579 677.826 304.594 677.88 304.594C677.935 304.593 677.989 304.579 678.036 304.551L681.916 302.312L685.797 300.074Z" fill="#F2DDBE"/>
<path d="M712.511 295.012H776.012" stroke="white" stroke-width="1.08412" stroke-miterlimit="10"/>
<path d="M712.511 304.597H743.142" stroke="white" stroke-width="1.08412" stroke-miterlimit="10"/>
<rect x="82" y="131" width="118.809" height="118.809" rx="30" transform="rotate(-21.3995 82 131)" fill="url(#paint5_linear)"/>
<path d="M144.817 169.826C145.109 170.571 145.268 171.35 145.295 172.164L145.563 172.059C146.666 171.627 147.6 171.665 148.366 172.173L144.968 163.503L128.589 169.922L127.888 168.134L149.027 159.85C149.653 159.605 150.249 159.723 150.816 160.205C150.378 159.483 150.025 158.78 149.757 158.094L149.529 157.513L151.607 156.699L152.334 158.554L154.68 157.634L155.381 159.422L153.035 160.341L158.026 173.078L155.903 173.91L151.569 162.849C151.341 162.268 151.078 161.882 150.779 161.689C150.48 161.497 150.07 161.503 149.549 161.707L147.113 162.662L152.105 175.399L149.96 176.239L149.863 175.994C149.058 173.938 147.813 173.24 146.13 173.9L144.945 174.364C144.322 176.017 143.071 177.212 141.194 177.947C139.243 178.712 137.465 178.713 135.86 177.95C134.249 177.172 133.038 175.748 132.226 173.677C131.922 172.903 131.684 172.12 131.512 171.328L133.59 170.514C133.754 171.24 134.002 172.027 134.335 172.877C134.942 174.426 135.785 175.479 136.862 176.036C137.949 176.573 139.14 176.587 140.436 176.079C141.643 175.606 142.431 174.876 142.801 173.89C143.17 172.903 143.124 171.821 142.663 170.644C142.383 169.929 142.013 169.404 141.555 169.068C141.097 168.732 140.585 168.674 140.019 168.896C139.527 169.089 139.217 169.417 139.089 169.879C138.97 170.321 139.019 170.818 139.235 171.369C139.433 171.875 139.709 172.36 140.063 172.823L138.163 173.567C137.739 173.098 137.404 172.55 137.159 171.925C136.767 170.927 136.752 169.988 137.112 169.108C137.48 168.207 138.201 167.547 139.274 167.126C140.45 166.665 141.547 166.699 142.562 167.229C143.592 167.754 144.344 168.619 144.817 169.826ZM168.911 169.07L166.006 170.209L160.378 168.806L159.677 167.018L161.688 166.23C162.755 165.795 163.46 165.226 163.804 164.524C164.156 163.802 164.158 162.994 163.807 162.1C163.55 161.444 163.181 161.005 162.698 160.782C162.224 160.538 161.697 160.53 161.116 160.757C160.58 160.968 160.215 161.308 160.021 161.779C159.843 162.244 159.859 162.745 160.069 163.281C160.244 163.728 160.479 164.152 160.773 164.552L158.784 165.332C158.445 164.949 158.168 164.482 157.952 163.931C157.555 162.918 157.573 161.957 158.008 161.048C158.436 160.124 159.224 159.437 160.371 158.987C161.577 158.514 162.692 158.507 163.713 158.966C164.75 159.419 165.482 160.189 165.908 161.277C166.398 162.528 166.388 163.709 165.879 164.82C165.378 165.91 164.458 166.786 163.119 167.448L168.823 168.847L168.911 169.07ZM165.574 155.427L154.491 159.771L153.791 157.983L161.165 155.093C161.072 154.682 160.974 154.343 160.869 154.075C160.483 153.092 159.844 152.775 158.95 153.125C158.622 153.254 158.143 153.545 157.513 153.998C156.877 154.436 156.366 154.731 155.978 154.883C155.323 155.14 154.643 155.226 153.94 155.141L153.283 153.465C153.972 153.469 154.585 153.367 155.121 153.157C155.464 153.022 155.965 152.723 156.625 152.258C157.294 151.772 157.874 151.433 158.366 151.241C159.424 150.826 160.324 150.8 161.067 151.162C161.825 151.517 162.383 152.15 162.739 153.058C162.896 153.461 163.012 153.888 163.086 154.34L164.874 153.639L165.574 155.427ZM174.164 166.754L172.041 167.586L167.05 154.849L164.704 155.768L164.003 153.981L166.349 153.061L165.526 150.961C164.324 147.892 165.473 145.672 168.973 144.3C170.821 143.576 172.935 143.074 175.317 142.793L175.983 144.491C173.916 144.7 171.848 145.21 169.777 146.021L169.576 146.1C170.266 147.204 171.23 147.514 172.466 147.029C172.854 146.878 173.556 146.542 174.572 146.024C175.583 145.49 176.32 145.133 176.782 144.952C177.809 144.549 178.682 144.516 179.398 144.854C180.115 145.192 180.628 145.756 180.938 146.545C180.99 146.679 181.066 146.916 181.164 147.255L183.086 146.502L183.787 148.29L175.094 151.696L178.676 160.836C178.892 161.387 179.2 161.756 179.6 161.943C180.008 162.109 180.459 162.096 180.95 161.903C181.948 161.512 182.6 160.784 182.904 159.72C183.203 158.64 183.145 157.572 182.731 156.514C182.147 155.024 181.05 154.595 179.442 155.225C179.114 155.354 178.82 155.503 178.56 155.674L177.816 153.774C178.15 153.575 178.533 153.39 178.965 153.221C180.321 152.69 181.52 152.658 182.563 153.126C183.614 153.573 184.385 154.422 184.876 155.673C185.495 157.252 185.531 158.836 184.985 160.425C184.454 162.008 183.354 163.126 181.686 163.78C180.628 164.195 179.616 164.222 178.65 163.862C177.684 163.501 176.985 162.77 176.553 161.667L172.971 152.528L169.173 154.017L174.164 166.754ZM167.671 150.12L168.495 152.221L179.243 148.008C179.211 147.883 179.154 147.717 179.072 147.508C178.74 146.659 178.119 146.412 177.21 146.769C176.778 146.938 176.094 147.275 175.157 147.779C174.215 148.269 173.491 148.613 172.984 148.811C171.792 149.278 170.767 149.337 169.908 148.986C169.063 148.629 168.411 148.017 167.951 147.149C167.28 147.893 167.187 148.884 167.671 150.12Z" fill="#91A577"/>
<rect x="660.894" y="46" width="74.6709" height="74.6709" rx="22.1795" transform="rotate(14.6567 660.894 46)" fill="url(#paint6_linear)"/>
<path d="M677.341 92.7094C677.038 93.8653 676.358 94.8305 675.299 95.6051C674.241 96.3797 673.122 96.6128 671.943 96.3045C671.131 96.0919 670.537 95.6738 670.162 95.0499C669.802 94.4177 669.736 93.6667 669.963 92.7969L671.827 85.6731L670.024 85.2016L670.384 83.8283L680.22 86.4014L679.86 87.7747L673.457 86.0997L673.143 87.3013L675.066 88.5746C676.052 89.1993 676.732 89.8236 677.107 90.4474C677.496 91.0628 677.574 91.8168 677.341 92.7094ZM672.333 94.8842C673.02 95.0638 673.701 94.869 674.375 94.2996C675.05 93.7303 675.489 93.0565 675.693 92.2783C675.815 91.8091 675.771 91.4184 675.559 91.1063C675.359 90.7971 674.958 90.4355 674.357 90.0215L672.717 88.9321L671.594 93.2235C671.354 94.1391 671.601 94.6926 672.333 94.8842ZM684.413 88.9656L682.61 88.4941L680.051 98.2787L678.42 97.8521L680.643 89.3549C680.76 88.9086 680.771 88.563 680.676 88.3181C680.581 88.0732 680.333 87.8983 679.932 87.7935L679.177 87.596L679.536 86.2227L680.429 86.4562C680.91 86.5819 681.215 86.9123 681.344 87.4474C681.396 86.8254 681.491 86.2511 681.629 85.7247L681.746 85.2784L683.342 85.696L682.97 87.1208L684.772 87.5923L684.413 88.9656ZM695.03 97.1534C694.76 98.1834 694.27 98.9111 693.56 99.3366C692.852 99.7507 692.052 99.8409 691.16 99.6074C690.999 99.5655 690.886 99.5299 690.821 99.5004L691.216 97.9898L691.422 98.0437C692.452 98.3132 693.117 97.8757 693.416 96.7313C693.608 95.9989 693.483 95.3305 693.042 94.726C692.612 94.1245 691.944 93.6869 691.038 93.4131L689.143 100.657L687.529 100.235L683.24 94.8947L683.694 93.161C686.06 91.9702 688.092 91.4443 689.792 91.5833L690.089 90.4504L683.72 88.7844L684.079 87.4111L697.726 90.9811L697.367 92.3544L691.702 90.8725L691.415 91.9711C692.714 92.3353 693.713 93.0004 694.414 93.9663C695.13 94.9238 695.335 95.9861 695.03 97.1534ZM688.005 98.4154L689.406 93.0596C688.121 93.0657 686.615 93.5156 684.89 94.4092L688.005 98.4154ZM687.198 103.34C687.954 103.537 688.541 103.092 688.96 102.003C688.57 101.718 688.192 101.527 687.826 101.431C687.471 101.339 687.17 101.345 686.922 101.452C686.66 101.566 686.486 101.784 686.403 102.105C686.325 102.402 686.361 102.662 686.51 102.885C686.649 103.104 686.878 103.256 687.198 103.34ZM691.505 105.457C691.056 104.508 690.524 103.666 689.91 102.93C689.584 103.567 689.169 104.033 688.664 104.328C688.144 104.633 687.552 104.698 686.888 104.524C686.179 104.339 685.648 103.986 685.295 103.465C684.939 102.956 684.845 102.382 685.012 101.741C685.189 101.066 685.564 100.589 686.138 100.311C686.709 100.045 687.378 100.012 688.145 100.213C689.003 100.437 689.76 100.886 690.415 101.559C691.056 102.24 691.566 102.978 691.945 103.774L691.505 105.457ZM706.446 94.7294L704.661 94.2624L702.101 104.047L700.487 103.625L696.199 98.2846L696.652 96.5508C698.709 95.5117 700.741 94.9915 702.746 94.9904L703.047 93.8403L696.678 92.1743L697.038 90.801L706.805 93.3561L706.446 94.7294ZM697.089 101.47C697.244 101.719 697.285 101.986 697.21 102.272C697.135 102.558 696.969 102.772 696.712 102.912C696.467 103.056 696.201 103.09 695.915 103.016C695.629 102.941 695.414 102.781 695.27 102.535C695.127 102.29 695.092 102.024 695.167 101.738C695.242 101.452 695.402 101.237 695.647 101.093C695.896 100.938 696.163 100.898 696.449 100.973C696.735 101.048 696.949 101.214 697.089 101.47ZM700.968 101.788L702.342 96.5353C700.825 96.6766 699.335 97.0936 697.87 97.7863L700.968 101.788ZM711 95.9207L709.197 95.4492L706.638 105.234L705.007 104.807L707.567 95.0226L705.764 94.5511L706.123 93.1778L707.926 93.6494L708.043 93.203C708.327 92.1159 708.114 91.1552 707.403 90.3212C706.703 89.4901 705.655 88.892 704.259 88.5268C702.931 88.1795 702.191 88.2977 702.039 88.8813C701.886 89.465 702.519 89.9424 703.938 90.3136C704.51 90.4633 705.062 90.5769 705.591 90.6544L705.291 91.8045C704.817 91.7907 704.174 91.6776 703.362 91.465C701.073 90.8663 700.111 89.8688 700.477 88.4727C700.656 87.786 701.122 87.3392 701.873 87.1322C702.615 86.9108 703.525 86.9407 704.6 87.2221C706.386 87.6892 707.765 88.5391 708.738 89.772C709.712 91.0048 710.022 92.2964 709.669 93.6468L709.557 94.076L711.359 94.5475L711 95.9207Z" fill="#AD825B"/>
<rect x="667" y="423" width="91" height="91" rx="25.2778" transform="rotate(16.5081 667 423)" fill="url(#paint7_linear)"/>
<path d="M685.925 472.485L683.909 471.887L680.633 482.939L678.811 482.399L674.122 476.158L674.702 474.2C677.084 473.092 679.417 472.574 681.701 472.646L682.086 471.347L674.893 469.215L675.353 467.664L686.385 470.934L685.925 472.485ZM679.426 480.324L681.184 474.391C679.451 474.496 677.738 474.917 676.044 475.652L679.426 480.324ZM685.699 484.44L683.722 483.854C684.811 482.883 685.492 481.939 685.764 481.021C685.921 480.491 685.963 479.59 685.89 478.317C685.817 477.044 685.862 476.136 686.022 475.593C686.36 474.456 687.085 473.644 688.199 473.159L690.157 473.739C689.669 473.918 689.209 474.21 688.779 474.617C688.362 475.028 688.068 475.524 687.895 476.106C687.734 476.649 687.688 477.563 687.757 478.849C687.826 480.135 687.782 481.043 687.625 481.573C687.311 482.633 686.669 483.589 685.699 484.44ZM691.767 474.216L685.155 472.257L685.615 470.706L692.226 472.665L691.767 474.216ZM696.882 475.732L694.846 475.129L691.57 486.18L689.729 485.634L692.573 476.037C692.722 475.533 692.747 475.139 692.648 474.857C692.549 474.575 692.274 474.366 691.821 474.232L690.968 473.979L691.428 472.428L692.436 472.727C692.979 472.888 693.314 473.276 693.441 473.89C693.524 473.183 693.654 472.533 693.83 471.938L693.979 471.434L695.782 471.968L695.305 473.578L697.341 474.181L696.882 475.732ZM707.131 478.77L705.115 478.172L701.84 489.224L700.017 488.683L695.328 482.443L695.909 480.485C698.29 479.376 700.623 478.859 702.907 478.931L703.292 477.632L696.099 475.5L696.559 473.949L707.591 477.219L707.131 478.77ZM700.632 486.609L702.39 480.676C700.658 480.781 698.944 481.201 697.25 481.937L700.632 486.609ZM713.265 492.61L711.404 492.058L712.559 488.161C712.712 487.644 712.735 487.187 712.628 486.789C712.525 486.379 712.253 486.109 711.814 485.979C711.516 485.891 711.206 485.918 710.882 486.061C710.559 486.204 710.239 486.405 709.924 486.663C709.625 486.912 709.305 487.161 708.963 487.412C708.622 487.662 708.218 487.838 707.753 487.939C707.287 488.04 706.802 488.016 706.298 487.866C705.858 487.736 705.426 487.509 705.002 487.187L705.467 485.616C705.855 485.872 706.211 486.048 706.534 486.143C706.806 486.224 707.079 486.228 707.353 486.154C707.632 486.068 707.869 485.956 708.065 485.817C708.261 485.678 708.515 485.486 708.826 485.241C709.142 484.983 709.387 484.796 709.562 484.679C709.74 483.606 709.619 482.685 709.201 481.914C708.782 481.143 708.095 480.616 707.138 480.333L707.564 478.898L706.362 478.542L706.821 476.99L719.036 480.611L718.576 482.162L716.541 481.558L713.265 492.61ZM711.947 484.247C712.684 484.465 713.152 484.878 713.352 485.485L714.679 481.007L709.406 479.444C710.145 479.986 710.678 480.678 711.005 481.521C711.348 482.354 711.476 483.228 711.387 484.144C711.567 484.155 711.753 484.189 711.947 484.247ZM723.711 483.683L721.676 483.08L718.4 494.132L716.558 493.586L719.403 483.988C719.552 483.484 719.577 483.091 719.478 482.809C719.379 482.526 719.103 482.318 718.651 482.184L717.798 481.931L718.258 480.38L719.266 480.679C719.809 480.839 720.144 481.227 720.271 481.841C720.354 481.135 720.483 480.484 720.66 479.889L720.809 479.385L722.612 479.92L722.135 481.529L724.171 482.132L723.711 483.683Z" fill="#AE6D8F"/>
<defs>
<linearGradient id="paint0_linear" x1="0" y1="0" x2="892.771" y2="823.215" gradientUnits="userSpaceOnUse">
<stop stop-color="#F39200" stop-opacity="0"/>
<stop offset="1" stop-color="#F83600"/>
</linearGradient>
<linearGradient id="paint1_linear" x1="341.172" y1="346.408" x2="492.759" y2="427.466" gradientUnits="userSpaceOnUse">
<stop stop-color="#F39200"/>
<stop offset="1" stop-color="#F83600"/>
</linearGradient>
<linearGradient id="paint2_linear" x1="264.858" y1="337.501" x2="497.476" y2="432.277" gradientUnits="userSpaceOnUse">
<stop stop-color="#F39200"/>
<stop offset="1" stop-color="#F83600"/>
</linearGradient>
<linearGradient id="paint3_linear" x1="224.501" y1="344.265" x2="309.284" y2="367.81" gradientUnits="userSpaceOnUse">
<stop stop-color="#F39200"/>
<stop offset="1" stop-color="#F83600"/>
</linearGradient>
<linearGradient id="paint4_linear" x1="499.695" y1="284.614" x2="535.849" y2="307.497" gradientUnits="userSpaceOnUse">
<stop stop-color="#F39200"/>
<stop offset="1" stop-color="#F83600"/>
</linearGradient>
<linearGradient id="paint5_linear" x1="141.404" y1="131" x2="141.404" y2="249.809" gradientUnits="userSpaceOnUse">
<stop stop-color="#FAFFEB"/>
<stop offset="1" stop-color="#D4E6BD"/>
</linearGradient>
<linearGradient id="paint6_linear" x1="698.229" y1="46" x2="698.229" y2="120.671" gradientUnits="userSpaceOnUse">
<stop stop-color="#FFF1E3"/>
<stop offset="1" stop-color="#E8B586"/>
</linearGradient>
<linearGradient id="paint7_linear" x1="712.5" y1="423" x2="712.5" y2="514" gradientUnits="userSpaceOnUse">
<stop stop-color="#F7FAFF"/>
<stop offset="1" stop-color="#F7C6C6"/>
</linearGradient>
</defs>
</svg>
