<svg width="11" height="10" viewBox="0 0 11 10" fill="none" xmlns="http://www.w3.org/2000/svg"><path d="M10.186 3.52128L7.04681 3.06505L5.64349 0.220085C5.60516 0.142191 5.5421 0.0791345 5.46421 0.0408059C5.26886 -0.0556336 5.03147 0.0247327 4.93379 0.220085L3.53047 3.06505L0.391243 3.52128C0.304694 3.53365 0.225564 3.57445 0.164981 3.63627C0.0917381 3.71155 0.0513782 3.81283 0.0527692 3.91785C0.0541602 4.02287 0.0971884 4.12305 0.172399 4.19636L2.44367 6.41076L1.90707 9.53763C1.89449 9.61037 1.90254 9.68517 1.93031 9.75357C1.95808 9.82197 2.00446 9.88121 2.06418 9.92459C2.12391 9.96797 2.1946 9.99375 2.26823 9.999C2.34186 10.0042 2.41549 9.98876 2.48077 9.9543L5.28864 8.47803L8.09652 9.9543C8.17317 9.9951 8.26219 10.0087 8.34751 9.99386C8.56264 9.95677 8.7073 9.75276 8.67021 9.53763L8.13361 6.41076L10.4049 4.19636C10.4667 4.13578 10.5075 4.05665 10.5199 3.9701C10.5533 3.75373 10.4024 3.55343 10.186 3.52128Z" fill="#EC9512"></path></svg>