<svg width="26" height="27" viewBox="0 0 26 27" fill="none" xmlns="http://www.w3.org/2000/svg">
<ellipse cx="13.1579" cy="13.3472" rx="12.7126" ry="13.2124" fill="url(#paint0_linear)"/>
<path d="M18.6457 16.9442C19.8922 15.5382 19.7667 13.7326 19.7628 13.712V8.21974C19.7628 8.03766 19.6932 7.86303 19.5693 7.73428C19.4454 7.60553 19.2774 7.5332 19.1022 7.5332H15.1388C14.4102 7.5332 13.8177 8.14902 13.8177 8.90627V13.712C13.8177 13.8941 13.8873 14.0687 14.0112 14.1975C14.135 14.3262 14.3031 14.3985 14.4783 14.3985H16.5115C16.4975 14.738 16.3999 15.068 16.2281 15.3569C15.8925 15.9069 15.2604 16.2824 14.3481 16.4719L13.8177 16.5817V18.5177H14.4783C16.3166 18.5177 17.719 17.9884 18.6457 16.9442ZM11.3749 16.9442C12.6221 15.5382 12.4959 13.7326 12.4919 13.712V8.21974C12.4919 8.03766 12.4223 7.86303 12.2985 7.73428C12.1746 7.60553 12.0066 7.5332 11.8314 7.5332H7.868C7.1394 7.5332 6.54688 8.14902 6.54688 8.90627V13.712C6.54688 13.8941 6.61647 14.0687 6.74035 14.1975C6.86423 14.3262 7.03225 14.3985 7.20744 14.3985H9.24065C9.22669 14.738 9.12912 15.068 8.95727 15.3569C8.6217 15.9069 7.98954 16.2824 7.07731 16.4719L6.54688 16.5817V18.5177H7.20744C9.04578 18.5177 10.4482 17.9884 11.3749 16.9442Z" fill="white"/>
<defs>
<linearGradient id="paint0_linear" x1="0.445313" y1="0.134766" x2="31.3598" y2="18.9617" gradientUnits="userSpaceOnUse">
<stop stop-color="#F39200"/>
<stop offset="1" stop-color="#F83600"/>
</linearGradient>
</defs>
</svg>
